<svg xmlns="http://www.w3.org/2000/svg" width="20" height="20" viewBox="0 0 20 20" fill="none">
    <path d="M11.3787 6.38204C12.2235 6.34852 13.0003 6.53186 13.7162 6.98415C14.5688 7.52279 15.1709 8.37972 15.3887 9.36446C15.4494 9.35018 15.5104 9.33525 15.5713 9.3226C16.0613 9.22087 16.6445 9.3182 17.0797 9.55611C17.6112 9.84488 18.0053 10.3339 18.1746 10.9147C18.3526 11.5365 18.2685 12.1332 17.9494 12.694C17.6686 13.1875 17.1487 13.5954 16.6038 13.7479C16.1262 13.8807 15.568 13.841 15.0705 13.841H13.0293L11.0726 13.8404L10.5023 13.8418C10.385 13.8424 10.2613 13.8465 10.1454 13.8385C9.93052 13.8236 9.75003 13.6239 9.73768 13.4128C9.72976 13.2774 9.73205 13.1457 9.73237 13.0108L9.73311 12.3635L9.73298 10.261L9.73237 8.21946L9.73226 7.5777C9.73234 7.24395 9.68119 6.9612 10.0248 6.77093C10.4593 6.53022 10.8831 6.41995 11.3787 6.38204Z" fill="#F8F8F8"/>
    <path d="M8.7814 7.45184C8.80603 7.44953 8.8329 7.44848 8.85744 7.45191C8.90167 7.45809 8.94631 7.48144 8.97232 7.51834C9.0446 7.62089 9.06159 8.16818 9.07438 8.33148C9.19097 9.82185 9.26086 11.3089 9.12163 12.8007C9.10348 12.9854 9.0833 13.1699 9.06111 13.3543C9.04915 13.4574 9.03835 13.5749 9.01959 13.6759C9.00149 13.7733 8.97212 13.8111 8.89274 13.8623C8.61234 13.9009 8.63824 13.6828 8.61499 13.4781C8.60031 13.3488 8.59215 13.2166 8.58101 13.0868C8.43578 11.4077 8.44166 9.71904 8.59858 8.04105C8.61236 7.8951 8.6155 7.70612 8.65218 7.56777C8.66961 7.50202 8.72377 7.47762 8.7814 7.45184Z" fill="#F8F8F8"/>
    <path d="M6.50882 7.98013C6.58137 7.97695 6.69797 8.02516 6.71086 8.10356C6.74636 8.31949 6.76756 8.54266 6.78935 8.7609C6.93691 10.2432 6.9328 11.7366 6.77707 13.2181C6.76496 13.3377 6.754 13.4584 6.73875 13.5776C6.71981 13.7258 6.7273 13.8202 6.56769 13.8697C6.49241 13.8773 6.46848 13.86 6.40292 13.8254C6.39374 13.8115 6.36336 13.765 6.36053 13.7519C6.31939 13.5623 6.30433 13.3109 6.28615 13.1197C6.13919 11.6105 6.14421 10.0901 6.30115 8.5819C6.3161 8.4357 6.32398 8.20967 6.37159 8.075C6.3893 8.02489 6.46176 7.99761 6.50882 7.98013Z" fill="#F8F8F8"/>
    <path d="M7.66562 8.21435C7.91963 8.18545 7.90939 8.41965 7.92804 8.59956C7.93561 8.67261 7.94431 8.7463 7.95208 8.81933C8.10446 10.2451 8.1084 11.6828 7.96386 13.1094C7.94521 13.2952 7.92949 13.5493 7.88264 13.7301C7.86983 13.7795 7.80383 13.8178 7.75886 13.8387C7.47486 13.8467 7.51935 13.6402 7.48971 13.4257C7.47581 13.3251 7.47051 13.2176 7.46115 13.116C7.32565 11.6703 7.33069 10.2149 7.47619 8.77019C7.48901 8.63766 7.49381 8.44432 7.53282 8.32205C7.552 8.2619 7.61032 8.23561 7.66562 8.21435Z" fill="#F8F8F8"/>
    <path d="M5.34333 8.56537C5.43294 8.56128 5.45486 8.57535 5.53112 8.61798C5.60942 8.75728 5.6224 9.06535 5.63995 9.23034C5.77434 10.4708 5.78158 11.7217 5.66158 12.9637C5.64677 13.1105 5.63088 13.2572 5.61391 13.4037C5.59564 13.5721 5.61445 13.7416 5.45666 13.8351C5.29328 13.8733 5.20802 13.789 5.18863 13.632C5.17141 13.4924 5.1592 13.3528 5.14464 13.213C5.01622 12.0025 5.00358 10.7826 5.10689 9.56962C5.12475 9.35513 5.16529 8.86168 5.20932 8.66608C5.25863 8.60804 5.27336 8.59611 5.34333 8.56537Z" fill="#F8F8F8"/>
    <path d="M3.03114 9.60983C3.11472 9.60711 3.2168 9.63011 3.24776 9.71421C3.29079 9.83105 3.30716 10.0021 3.32485 10.1269C3.46495 11.0943 3.46891 12.0767 3.33662 13.0451C3.31608 13.1961 3.2974 13.3832 3.25711 13.5298C3.23838 13.5979 3.20456 13.6287 3.14391 13.6582C3.05085 13.6833 2.9385 13.6642 2.90369 13.5622C2.8557 13.4215 2.84391 13.2538 2.82403 13.1047C2.69084 12.0946 2.6952 11.0711 2.83702 10.0622C2.85227 9.9582 2.85737 9.82851 2.89031 9.73074C2.91476 9.65817 2.96693 9.63748 3.03114 9.60983Z" fill="#F8F8F8"/>
    <path d="M4.18993 9.79569C4.40259 9.77792 4.41712 9.95175 4.44957 10.1108C4.67891 11.2357 4.57109 12.3816 4.43828 13.5105C4.41814 13.6817 4.44712 13.7972 4.27703 13.8831C4.19005 13.8942 4.08323 13.8685 4.05469 13.7743C4.01434 13.6326 4.01148 13.4802 3.99487 13.3327C3.87523 12.2698 3.79981 11.1893 3.99718 10.1303C4.02678 9.97137 4.02013 9.85204 4.18993 9.79569Z" fill="#F8F8F8"/>
    <path d="M1.84633 10.2656C2.12001 10.2367 2.12972 10.4756 2.17682 10.6918C2.31248 11.3116 2.31322 11.9533 2.17899 12.5734C2.15406 12.6892 2.11443 12.896 2.0578 13.0008C2.04887 13.0173 2.01041 13.0423 1.99328 13.0535C1.90229 13.0874 1.86319 13.0673 1.7809 13.0278C1.77259 13.0166 1.76478 13.0051 1.7575 12.9933C1.72078 12.9343 1.6874 12.7367 1.672 12.6586C1.52974 11.9385 1.5408 11.1838 1.7015 10.4678C1.72596 10.3588 1.75647 10.3178 1.84633 10.2656Z" fill="#F8F8F8"/>
</svg>
