<svg width="12" height="12" viewBox="0 0 12 12" fill="none" xmlns="http://www.w3.org/2000/svg">
<path d="M6 1C3.24 1 1 3.24 1 6C1 8.76 3.24 11 6 11C8.76 11 11 8.76 11 6C11 3.24 8.76 1 6 1ZM4.5 4.5C4.91 4.5 5.25 4.84 5.25 5.25C5.25 5.66 4.91 6 4.5 6C4.09 6 3.75 5.66 3.75 5.25C3.75 4.84 4.09 4.5 4.5 4.5ZM8.1 7.85C7.55 8.48 6.8 8.75 6 8.75C5.2 8.75 4.45 8.48 3.9 7.85C3.72 7.64 3.74 7.33 3.95 7.15C4.16 6.97 4.47 6.99 4.65 7.2C5.01 7.61 5.47 7.75 6 7.75C6.53 7.75 6.99 7.61 7.35 7.2C7.53 6.99 7.84 6.97 8.05 7.15C8.26 7.33 8.28 7.64 8.1 7.85ZM7.5 6C7.09 6 6.75 5.66 6.75 5.25C6.75 4.84 7.09 4.5 7.5 4.5C7.91 4.5 8.25 4.84 8.25 5.25C8.25 5.66 7.91 6 7.5 6Z" fill="white"/>
</svg>
