<svg xmlns="http://www.w3.org/2000/svg" width="20" height="20" viewBox="0 0 20 20" fill="none">
    <path d="M10 1.75C10.1164 1.75 10.2323 1.7527 10.3475 1.75786C10.7209 1.77459 11 2.09368 11 2.46747C11 2.91878 10.5981 3.26145 10.1469 3.2516C10.0981 3.25054 10.0491 3.25 10 3.25C6.27208 3.25 3.25 6.27208 3.25 10C3.25 13.7279 6.27208 16.75 10 16.75C10.0491 16.75 10.0981 16.7494 10.147 16.7483C10.5982 16.7382 11 17.0803 11 17.5316C11 17.9054 10.7209 18.2247 10.3475 18.2419C10.2323 18.2472 10.1165 18.25 10 18.25C5.44365 18.25 1.75 14.5563 1.75 10C1.75 5.44365 5.44365 1.75 10 1.75Z" fill="#F55522"/>
    <path d="M12.8341 4.96973C13.1186 4.67684 13.5797 4.67684 13.8642 4.96973L18.7499 10L13.8642 15.0303C13.5797 15.3232 13.1186 15.3232 12.8341 15.0303C12.5496 14.7374 12.5496 14.2626 12.8341 13.9697L15.9613 10.75H8.97845C8.57614 10.75 8.25 10.4142 8.25 10C8.25 9.58579 8.57614 9.25 8.97845 9.25H15.9613L12.8341 6.03028C12.5496 5.73738 12.5496 5.26262 12.8341 4.96973Z" fill="#F55522"/>
</svg>
