<svg width="20" height="20" viewBox="0 0 20 20" fill="none" xmlns="http://www.w3.org/2000/svg">
    <g clip-path="url(#clip0_11245_5241)">
        <path d="M3.98632 8.25754C4.33994 7.90392 4.77542 7.64525 5.29276 7.48154C5.81337 7.3211 6.38146 7.26707 6.99703 7.31946C7.3938 7.35095 7.79259 7.43157 8.19339 7.56131C8.6135 7.69731 9.08247 7.6396 9.41607 7.35029L10.7692 6.17688C11.0988 5.891 11.2284 5.44152 11.1348 5.01533C11.1045 4.8773 11.0775 4.74164 11.0539 4.60835C10.9949 4.26127 10.954 3.94531 10.9311 3.66044C10.9147 3.37558 10.9196 3.13492 10.9458 2.93846C10.9851 2.63723 11.0883 2.40312 11.2552 2.23613C11.419 2.07241 11.6089 1.99383 11.825 2.00038C12.0476 2.00693 12.2506 2.10188 12.434 2.28524L17.7187 7.56994C17.8988 7.75003 17.9921 7.9514 17.9986 8.17405C18.0085 8.39343 17.9315 8.58497 17.7678 8.74869C17.6008 8.91568 17.3651 9.01718 17.0606 9.0532C16.8674 9.08267 16.6267 9.08758 16.3386 9.06793C16.057 9.04829 15.741 9.00736 15.3907 8.94515C15.2556 8.91967 15.1176 8.89122 14.9766 8.85979C14.5548 8.76575 14.1105 8.89729 13.8273 9.22383L12.6499 10.5815C12.36 10.9159 12.3027 11.386 12.44 11.8067C12.5714 12.2095 12.6529 12.6095 12.6845 13.0069C12.7369 13.6225 12.6812 14.1889 12.5175 14.7063C12.357 15.2269 12.1 15.664 11.7464 16.0176C11.5237 16.2403 11.2733 16.3499 10.9949 16.3467C10.7232 16.3434 10.4694 16.2239 10.2337 15.9881L7.61096 13.3654L6.6385 12.393L4.01088 9.76535C3.7784 9.53288 3.65889 9.27912 3.65234 9.00408C3.65234 8.72904 3.76367 8.4802 3.98632 8.25754Z" stroke="#9B9B9B" stroke-width="1.5" stroke-linecap="round" stroke-linejoin="round"/>
        <path d="M7.80259 13.4219L4.14234 16.9535C3.54887 17.547 2.75611 17.9042 2.30927 17.9805C2.16204 18.0099 2.07002 18.0062 2.03321 17.9694C1.99272 17.9289 1.9872 17.8351 2.01664 17.6878C2.15291 17.0065 2.56077 16.3486 3.04913 15.8603L6.70937 12.3287C7.09491 11.9063 8.22097 13.0321 7.80259 13.4219Z" fill="#9B9B9B"/>
        <path fill-rule="evenodd" clip-rule="evenodd" d="M3.21967 3.21967C2.92678 3.51256 2.92678 3.98744 3.21967 4.28033L16.2197 17.2803C16.5126 17.5732 16.9874 17.5732 17.2803 17.2803C17.5732 16.9874 17.5732 16.5126 17.2803 16.2197L4.28033 3.21967C3.98744 2.92678 3.51256 2.92678 3.21967 3.21967Z" fill="#9B9B9B"/>
        <path fill-rule="evenodd" clip-rule="evenodd" d="M0.196233 2.31342C-0.0966606 2.60631 -0.0966606 3.08119 0.196233 3.37408L14.1962 17.3741C14.4891 17.667 14.964 17.667 15.2569 17.3741C15.5498 17.0812 15.5498 16.6063 15.2569 16.3134L1.25689 2.31342C0.964 2.02053 0.489125 2.02053 0.196233 2.31342Z" fill="white"/>
    </g>
    <defs>
        <clipPath id="clip0_11245_5241">
            <rect width="20" height="20" fill="white"/>
        </clipPath>
    </defs>
</svg>
